<svg version="1" xmlns="http://www.w3.org/2000/svg" width="682.667" height="682.667" viewBox="0 0 512.000000 512.000000"><path d="M44.6 201.2c.1 182.8.3 207.8 2 217.4 3.9 22.9 17.5 38.9 38.9 45.7 5.1 1.6 20.2 4.3 26.5 4.7 1.9.1 5.1.3 7 .5 1.9.2 10 .6 18 1 30.8 1.2 35.5 1.7 50.2 4.6 24.2 4.8 45.2 15.5 60.2 30.7l6 6 4.5-4.7c7.1-7.3 18.7-15.9 28.1-20.6 11.8-5.9 24.4-9.9 41.5-13 7-1.3 20.1-2.2 42.5-3 28.2-1 49.2-4.5 60.4-10.2 5.5-2.8 12.1-7.6 14.7-10.8 1-1.1 2.9-3.4 4.3-5 1.4-1.7 2.6-3.4 2.6-3.9s.6-1.7 1.3-2.5c2-2.5 5.6-13.7 7.1-22.6 1.6-9.1 1.7-19.5 1.8-187.8.1-60.9-.1-111-.4-111.3-.3-.3-2.7 2.6-5.4 6.3-2.6 3.7-7.8 10.8-11.4 15.8-3.7 4.9-8.9 12.1-11.7 16-2.8 3.8-11.1 15.2-18.5 25.2-7.3 10-15.2 20.8-17.5 24-2.3 3.2-6.6 9-9.5 13-2.9 3.9-6 8.1-6.8 9.3-.8 1.2-2.9 4.1-4.6 6.4-7.6 10.2-23 31.2-24.4 33.3-1.8 2.7-28.7 39.5-34.5 47.3-2.3 3-6.5 8.6-9.3 12.5-2.7 3.8-8.6 11.8-12.9 17.7-4.3 5.8-8.5 11.6-9.3 12.9-5.3 7.8-4.1 7.4-21.6 7.7-8.8.2-20.7.5-26.5.7l-10.7.3-18.8-23.7c-10.4-13-19.1-23.8-19.4-24.1-2.8-2.7-96-120.4-95.8-121 .2-.4 4.4-4 9.3-7.9 5-4 9.9-7.9 11-8.9 1.1-1 7.4-6 14-11.2 6.6-5.2 12.2-9.7 12.5-10 4.6-4.8 3.9-5.2 16.1 10.2 14.4 18.1 14.2 17.8 15.4 19.2.6.6 7.5 9.2 15.4 19.1 7.9 9.9 15.8 19.8 17.6 22 2.9 3.6 19.1 24 27 34 1.7 2.1 3.5 4.3 4 4.9.6.6 4.6 5.5 8.8 10.9l7.8 9.8 14.5-19.8c8-10.9 15.2-20.7 16-21.8.8-1.1 14.8-20.3 31.2-42.7 16.3-22.3 30.4-41.6 31.2-42.8.8-1.2 2.9-4.1 4.6-6.4 4.2-5.6 17.9-24.3 29.4-40.1 5.2-7.2 9.8-13.5 10.2-14 2.5-3.1 22.1-30 59.5-81.4 5.1-6.9 10.1-13.7 11.2-15.1 1.2-1.4 2.1-2.8 2.1-3.3 0-.4-93.9-.7-208.8-.7H44.5l.1 201.2z"/></svg>