<svg xmlns="http://www.w3.org/2000/svg" xmlns:xlink="http://www.w3.org/1999/xlink">
    <symbol viewBox="0 0 31 38" id="logo-small">
        <path d="M30.9962 0.0575167C30.9962 0.0194818 30.9962 0 30.9962 0H0C0 0 0 19.606 0.00858382 29.1692C0.00858382 29.7922 0.0364882 30.322 0.148301 31.0321C0.462628 33.0281 1.63001 34.1051 3.32127 34.5462C4.02889 34.7308 4.76344 34.7876 5.49506 34.8442C5.59768 34.8522 5.70024 34.8601 5.80266 34.8684C6.30912 34.9105 6.81772 34.9252 7.32632 34.9399C7.8349 34.9547 8.34348 34.9694 8.84992 35.0115C11.4079 35.222 13.7341 35.9628 15.5024 38C17.2621 35.9628 19.5883 35.222 22.1548 35.0115C22.6613 34.9694 23.1699 34.9547 23.6784 34.9399C24.187 34.9252 24.6957 34.9105 25.2021 34.8684C26.0347 34.801 26.8845 34.7169 27.6914 34.5148C29.5112 34.0518 30.5241 32.8143 30.8417 31.0296C30.9533 30.4235 30.9962 29.7922 30.9962 29.1692C31.0011 23.721 31.0004 15.0132 30.9989 8.52817L17.5185 26.975L13.5479 27.0617L3.54785 14.5617L7.4522 11.4383L15.4102 21.3858L30.9962 0.0575167Z"/>
    </symbol>
    <symbol viewBox="0 0 32 26" id="icon-search">
        <path fill-rule="evenodd" clip-rule="evenodd" d="M23.2713 20.9072C20.9 24.0037 17.1692 26 12.9731 26C5.80827 26 0 20.1797 0 13C0 5.82029 5.80827 0 12.9731 0C20.138 0 25.9463 5.82029 25.9463 13C25.9463 15.1272 25.4364 17.1351 24.5324 18.9077L32 24.0523L30.6637 26L23.2713 20.9072ZM23.5875 13C23.5875 18.8743 18.8353 23.6363 12.9731 23.6363C7.11097 23.6363 2.35875 18.8743 2.35875 13C2.35875 7.12569 7.11097 2.36363 12.9731 2.36363C18.8353 2.36363 23.5875 7.12569 23.5875 13Z"/>
    </symbol>
    <symbol viewBox="0 0 18 14" id="icon-check">
        <path fill-rule="evenodd" clip-rule="evenodd" d="M17.7021 1.31192L7.70255 13.8119L6.36336 13.8861L0.863281 8.38612L2.13606 7.11332L6.9251 11.9023L16.2965 0.1875L17.7021 1.31192Z"/>
    </symbol>
    <symbol viewBox="0 0 19 13" id="icon-select-arrow-down">
        <path d="M0.314453 1.58276L1.68594 0.416992L9.5002 9.61023L17.3145 0.416992L18.6859 1.58276L9.5002 12.3895L0.314453 1.58276Z"/>
    </symbol>
    <symbol viewBox="0 0 37 26" id="icon-electorat">
        <path d="M24.5058 25.1408H35.7814L36.3635 20.9511C36.6332 19.0094 36.7681 18.0385 36.3499 17.2047C36.2225 16.9507 36.0267 16.6738 35.8296 16.4691C35.1827 15.797 34.2902 15.6147 32.5051 15.25C30.8001 14.9017 28.8971 14.6064 27.3443 14.6064C26.5202 14.6064 25.5974 14.6896 24.6579 14.8197C25.0499 15.5616 25.1702 16.3219 25.1826 17.12C25.1942 17.8661 25.11 18.756 25.0126 19.7842L24.5058 25.1408Z"/>
        <path d="M31.7312 7.10896C31.7312 8.39597 31.6153 10.048 30.9444 11.2174C30.1848 12.5413 28.6221 13.6357 27.3421 13.6357C26.0622 13.6357 24.4841 12.3676 23.8132 11.2174C23.327 10.384 22.9531 8.39597 22.9531 7.10896C22.9531 4.91444 24.9181 3.26855 27.3421 3.26855C29.7661 3.26855 31.7312 4.91444 31.7312 7.10896Z"/>
        <path d="M2.31558 17.4044C2.3031 16.6101 2.39224 16.0342 2.67187 15.5104C2.82315 15.227 3.05138 14.9182 3.2779 14.6905C4.02073 13.9436 5.01884 13.7377 7.01505 13.326C8.11619 13.0988 9.29417 12.8897 10.4336 12.7495L4.73173 20.3441L2.31558 17.4044Z"/>
        <path d="M11.994 12.6032L15.1227 14.8286L7.38057 25.1406H22.999L23.512 19.7188C23.7188 17.5327 23.8223 16.4396 23.3262 15.5104C23.1749 15.227 22.9467 14.9182 22.7202 14.6905C21.9773 13.9436 20.9792 13.7377 18.983 13.326C17.0142 12.9199 14.7998 12.5713 12.999 12.5713C12.6761 12.5713 12.3398 12.5825 11.994 12.6032Z"/>
        <path d="M17.9992 4.37464C17.9992 5.84068 17.8672 7.72251 17.1029 9.05455C16.2376 10.5626 14.4576 11.8092 12.9996 11.8092C11.5415 11.8092 9.74397 10.3647 8.97968 9.05455C8.42593 8.10525 8 5.84068 8 4.37464C8 1.87485 10.2384 0 12.9996 0C15.7608 0 17.9992 1.87485 17.9992 4.37464Z"/>
        <path fill-rule="evenodd" clip-rule="evenodd" d="M13 15.1585L5.63671 24.966L4.03468 25L0 20.0911L1.57528 18.8645L4.78607 22.771L11.3712 14L13 15.1585Z"/>
    </symbol>
    <symbol viewBox="0 0 35 26" id="icon-population">
        <path d="M29.7302 7.10896C29.7302 8.39597 29.6144 10.048 28.9434 11.2174C28.1838 12.5413 26.6212 13.6357 25.3412 13.6357C24.0612 13.6357 22.4831 12.3676 21.8122 11.2174C21.3261 10.384 20.9522 8.39597 20.9522 7.10896C20.9522 4.91444 22.9172 3.26855 25.3412 3.26855C27.7652 3.26855 29.7302 4.91444 29.7302 7.10896Z"/>
        <path d="M0.486053 19.7188C0.279217 17.5327 0.175799 16.4396 0.671871 15.5104C0.823145 15.227 1.05138 14.9182 1.2779 14.6905C2.02073 13.9436 3.01884 13.7377 5.01505 13.326C6.98384 12.9199 9.19823 12.5713 10.999 12.5713C12.7998 12.5713 15.0142 12.9199 16.983 13.326C18.9792 13.7377 19.9773 13.9436 20.7202 14.6905C20.9467 14.9182 21.1749 15.227 21.3262 15.5104C21.8223 16.4396 21.7188 17.5327 21.512 19.7188L20.999 25.1406H0.999027L0.486053 19.7188Z"/>
        <path d="M22.5058 25.1409H33.7807L34.3627 20.9513C34.6325 19.0095 34.7673 18.0387 34.3491 17.2048C34.2218 16.9509 34.0259 16.674 33.8289 16.4693C33.182 15.7972 32.2894 15.6149 30.5043 15.2502C28.7994 14.9019 26.8963 14.6066 25.3435 14.6066C24.5196 14.6066 23.5971 14.6897 22.6579 14.8198C23.0499 15.5617 23.1702 16.322 23.1826 17.1201C23.1942 17.8662 23.11 18.7561 23.0126 19.7843L22.5058 25.1409Z"/>
        <path d="M15.9982 4.37464C15.9982 5.84068 15.8663 7.72251 15.102 9.05455C14.2367 10.5626 12.4567 11.8092 10.9986 11.8092C9.54057 11.8092 7.743 10.3647 6.97871 9.05455C6.42495 8.10525 5.99903 5.84068 5.99903 4.37464C5.99903 1.87485 8.23742 0 10.9986 0C13.7598 0 15.9982 1.87485 15.9982 4.37464Z"/>
    </symbol>
    <symbol viewBox="0 0 44 45" id="icon-telegram">
        <path fill-rule="evenodd" clip-rule="evenodd" d="M44 22.0997C44 34.25 34.1503 44.0997 22 44.0997C9.84973 44.0997 0 34.25 0 22.0997C0 9.94947 9.84973 0.0997314 22 0.0997314C34.1503 0.0997314 44 9.94947 44 22.0997ZM24.0813 14.0812C20.0932 15.743 8.59399 20.4623 8.59399 20.4623C5.86876 21.5258 7.46402 22.5228 7.46402 22.5228C7.46402 22.5228 9.79044 23.3205 11.7845 23.9187C13.7786 24.5169 14.8421 23.8522 14.8421 23.8522C14.8421 23.8522 19.4949 20.7946 24.2143 17.5376C27.5377 15.2777 26.7401 17.1388 25.9425 17.9364C24.2143 19.6646 21.3561 22.3899 18.9632 24.5834C17.8997 25.5139 18.4314 26.3116 18.8967 26.7104C20.2493 27.8549 23.4343 29.9359 24.8822 30.882C25.2842 31.1447 25.5523 31.3199 25.6101 31.3632C25.9425 31.6291 27.8036 32.8256 28.9336 32.5597C30.0636 32.2938 30.1965 30.765 30.1965 30.765C30.1965 30.765 31.0606 25.3145 31.8582 20.3293C32.0059 19.3509 32.1536 18.3931 32.2913 17.4998C32.6494 15.1768 32.9402 13.291 32.9882 12.6189C33.1876 10.359 30.7947 11.2895 30.7947 11.2895C30.7947 11.2895 25.6101 13.4165 24.0813 14.0812Z"/>
        <path fill-rule="evenodd" clip-rule="evenodd" d="M44 22.0997C44 34.25 34.1503 44.0997 22 44.0997C9.84973 44.0997 0 34.25 0 22.0997C0 9.94947 9.84973 0.0997314 22 0.0997314C34.1503 0.0997314 44 9.94947 44 22.0997ZM24.0813 14.0812C20.0932 15.743 8.59399 20.4623 8.59399 20.4623C5.86876 21.5258 7.46402 22.5228 7.46402 22.5228C7.46402 22.5228 9.79044 23.3205 11.7845 23.9187C13.7786 24.5169 14.8421 23.8522 14.8421 23.8522C14.8421 23.8522 19.4949 20.7946 24.2143 17.5376C27.5377 15.2777 26.7401 17.1388 25.9425 17.9364C24.2143 19.6646 21.3561 22.3899 18.9632 24.5834C17.8997 25.5139 18.4314 26.3116 18.8967 26.7104C20.2493 27.8549 23.4343 29.9359 24.8822 30.882C25.2842 31.1447 25.5523 31.3199 25.6101 31.3632C25.9425 31.6291 27.8036 32.8256 28.9336 32.5597C30.0636 32.2938 30.1965 30.765 30.1965 30.765C30.1965 30.765 31.0606 25.3145 31.8582 20.3293C32.0059 19.3509 32.1536 18.3931 32.2913 17.4998C32.6494 15.1768 32.9402 13.291 32.9882 12.6189C33.1876 10.359 30.7947 11.2895 30.7947 11.2895C30.7947 11.2895 25.6101 13.4165 24.0813 14.0812Z"/>
    </symbol>
    <symbol viewBox="0 0 44 45" id="icon-whatsapp">
        <path fill-rule="evenodd" clip-rule="evenodd" d="M37.5733 6.42673C33.4463 2.27876 27.9437 0 22.084 0C10.0181 0 0.189021 9.82912 0.17852 21.895C0.17852 25.7594 1.18663 29.5189 3.09785 32.8477L0 44.1995L11.6143 41.1542C14.8172 42.8974 18.4191 43.8215 22.084 43.8215H22.0945C34.1604 43.8215 43.9895 33.9924 44 21.916C43.9895 16.0668 41.7107 10.5642 37.5733 6.42673ZM22.084 40.1146C18.8076 40.1146 15.6048 39.2325 12.8115 37.5733L12.1499 37.1742L5.2611 38.9804L7.09881 32.2597L6.66826 31.5666C4.84105 28.6683 3.88544 25.3184 3.88544 21.8845C3.88544 11.8663 12.0554 3.69642 22.0945 3.69642C26.9566 3.69642 31.5246 5.59714 34.969 9.03103C38.4029 12.4754 40.2931 17.0434 40.2931 21.9055C40.2826 31.9551 32.1126 40.1146 22.084 40.1146ZM32.0706 26.484C31.5246 26.211 28.8363 24.8878 28.3322 24.6988C27.8282 24.5203 27.4606 24.4258 27.1036 24.9718C26.736 25.5179 25.6859 26.757 25.3709 27.1141C25.0558 27.4816 24.7303 27.5236 24.1842 27.2506C23.6382 26.9776 21.874 26.4 19.7842 24.5308C18.1566 23.0816 17.0644 21.2859 16.7389 20.7399C16.4239 20.1938 16.7074 19.8998 16.9804 19.6267C17.222 19.3852 17.5265 18.9862 17.7995 18.6711C18.0726 18.3561 18.1671 18.1251 18.3456 17.7575C18.5241 17.39 18.4401 17.0749 18.3036 16.8019C18.1671 16.5289 17.0749 13.8301 16.6129 12.7379C16.1718 11.6668 15.7203 11.8138 15.3842 11.8033C15.0692 11.7823 14.7017 11.7823 14.3341 11.7823C13.9666 11.7823 13.3785 11.9189 12.8745 12.4649C12.3704 13.011 10.9632 14.3341 10.9632 17.0329C10.9632 19.7317 12.927 22.3255 13.2 22.6931C13.473 23.0606 17.0539 28.5842 22.5461 30.9575C23.8482 31.5246 24.8668 31.8606 25.6649 32.1126C26.9776 32.5327 28.1642 32.4697 29.1093 32.3332C30.1594 32.1757 32.3437 31.01 32.8057 29.7289C33.2573 28.4477 33.2573 27.3556 33.1208 27.1246C32.9842 26.8936 32.6167 26.757 32.0706 26.484Z"/>
    </symbol>
    <symbol viewBox="0 0 45 45" id="icon-instagram">
        <path d="M22 4.0604C27.8777 4.0604 28.5677 4.0866 30.8908 4.19141C33.0393 4.28748 34.2009 4.64556 34.9782 4.95123C36.0088 5.35298 36.7424 5.82459 37.5109 6.59315C38.2795 7.36171 38.7598 8.09534 39.1529 9.1259C39.4498 9.9032 39.8166 11.0648 39.9127 13.2132C40.0175 15.5364 40.0437 16.2263 40.0437 22.1041C40.0437 27.9818 40.0175 28.6718 39.9127 30.9949C39.8166 33.1434 39.4585 34.3049 39.1529 35.0822C38.7511 36.1128 38.2795 36.8464 37.5109 37.615C36.7424 38.3835 36.0088 38.8639 34.9782 39.2569C34.2009 39.5539 33.0393 39.9207 30.8908 40.0167C28.5677 40.1215 27.8777 40.1477 22 40.1477C16.1223 40.1477 15.4323 40.1215 13.1092 40.0167C10.9607 39.9207 9.79913 39.5626 9.02184 39.2569C7.99127 38.8552 7.25765 38.3835 6.48909 37.615C5.72053 36.8464 5.24018 36.1128 4.84716 35.0822C4.55022 34.3049 4.18341 33.1434 4.08734 30.9949C3.98253 28.6718 3.95633 27.9818 3.95633 22.1041C3.95633 16.2263 3.98253 15.5364 4.08734 13.2132C4.18341 11.0648 4.54149 9.9032 4.84716 9.1259C5.24891 8.09534 5.72053 7.36171 6.48909 6.59315C7.25765 5.82459 7.99127 5.34425 9.02184 4.95123C9.79913 4.65429 10.9607 4.28748 13.1092 4.19141C15.4323 4.07787 16.131 4.0604 22 4.0604ZM22 0.0953369C16.0262 0.0953369 15.2751 0.121538 12.9258 0.226341C10.5852 0.331145 8.9869 0.706691 7.58952 1.24818C6.13974 1.80713 4.91703 2.56695 3.69432 3.78966C2.47162 5.01237 1.72052 6.24381 1.15284 7.68486C0.611354 9.08224 0.235808 10.6805 0.131004 13.0298C0.0262009 15.3704 0 16.1215 0 22.0953C0 28.0691 0.0262009 28.8202 0.131004 31.1696C0.235808 33.5102 0.611354 35.1084 1.15284 36.5145C1.71179 37.9643 2.47162 39.187 3.69432 40.4097C4.91703 41.6325 6.14847 42.3835 7.58952 42.9512C8.9869 43.4927 10.5852 43.8683 12.9345 43.9731C15.2839 44.0779 16.0262 44.1041 22.0087 44.1041C27.9913 44.1041 28.7336 44.0779 31.083 43.9731C33.4236 43.8683 35.0219 43.4927 36.428 42.9512C37.8777 42.3923 39.1005 41.6325 40.3232 40.4097C41.5459 39.187 42.297 37.9556 42.8646 36.5145C43.4061 35.1172 43.7817 33.5189 43.8865 31.1696C43.9913 28.8202 44.0175 28.0779 44.0175 22.0953C44.0175 16.1128 43.9913 15.3704 43.8865 13.0211C43.7817 10.6805 43.4061 9.08224 42.8646 7.67612C42.3057 6.22634 41.5459 5.00363 40.3232 3.78093C39.1005 2.55822 37.869 1.80713 36.428 1.23944C35.0306 0.697957 33.4323 0.322411 31.083 0.217608C28.7249 0.121538 27.9738 0.0953369 22 0.0953369Z"/>
        <path d="M22 10.8028C15.7642 10.8028 10.6987 15.8595 10.6987 22.1041C10.6987 28.3486 15.7555 33.4054 22 33.4054C28.2445 33.4054 33.3013 28.3486 33.3013 22.1041C33.3013 15.8595 28.2445 10.8028 22 10.8028ZM22 29.4316C17.9476 29.4316 14.6638 26.1477 14.6638 22.0953C14.6638 18.0429 17.9476 14.7591 22 14.7591C26.0524 14.7591 29.3362 18.0429 29.3362 22.0953C29.3362 26.1477 26.0524 29.4316 22 29.4316Z"/>
        <path d="M33.7468 12.9862C35.2035 12.9862 36.3843 11.8053 36.3843 10.3486C36.3843 8.89192 35.2035 7.71105 33.7468 7.71105C32.2901 7.71105 31.1092 8.89192 31.1092 10.3486C31.1092 11.8053 32.2901 12.9862 33.7468 12.9862Z"/>
    </symbol>
    <symbol viewBox="0 0 32 32" id="icon-close">
        <path d="M15.5564 14.1421L29.6985 0L31.1127 1.41422L16.9706 15.5563L31.1128 29.6985L29.6986 31.1127L15.5564 16.9705L1.41418 31.1127L0 29.6985L14.1422 15.5563L0.00012207 1.41422L1.41431 0L15.5564 14.1421Z"/>
    </symbol>
    <symbol viewBox="0 0 19 18" id="icon-cross-small">
        <path d="M9.1232 10.5384L16.2087 17.6239L17.6229 16.2097L10.5374 9.12417L18.2474 1.41421L16.8332 0L9.1232 7.70996L1.41324 0L-0.000976562 1.41421L7.70899 9.12418L0.623492 16.2097L2.03771 17.6239L9.1232 10.5384Z"/>
    </symbol>
    <symbol viewBox="0 0 32 31" id="icon-arrow-left">
        <path d="M0.556274 14.2684L31.1548 0L32 1.81262L2.72729 15.4626L32 29.1128L31.1548 30.9254L0.556274 16.657V14.2684Z"/>
    </symbol>
    <symbol viewBox="0 0 32 31" id="icon-arrow-right">
        <path d="M32 14.2684L1.40149 0L0.556274 1.81262L29.829 15.4626L0.556274 29.1128L1.40149 30.9254L32 16.657V14.2684Z"/>
    </symbol>
</svg>
